PathFileType	4	(X/Y/Z)	C:/Users/opensim2020/Desktop/walking_exp_matlab/subject01_walking09_straight_01.trc	
DataRate	CameraRate	NumFrames	NumMarkers	Units	OrigDataRate	OrigDataStartFrame	OrigNumFrames	
100.00	100.00	4	43	mm	100.00	953	485	
Frame#	Time	LFHD			RFHD			LBHD			RBHD			C7			T10			CLAV			STRN			RBAK			LSHO			LUPA			LELB			LFRM			LWRA			LWRB			LFIN			RSHO			RUPA			RELB			RFRM			RWRA			RWRB			RFIN			LASI			RASI			LPSI			RPSI			LTHI			LKNE			LTIB			LANK			LHEE			LTOE			RTHI			RKNE			RTIB			RANK			RHEE			RTOE			*39			*40			*41			*42			
		X1	Y1	Z1	X2	Y2	Z2	X3	Y3	Z3	X4	Y4	Z4	X5	Y5	Z5	X6	Y6	Z6	X7	Y7	Z7	X8	Y8	Z8	X9	Y9	Z9	X10	Y10	Z10	X11	Y11	Z11	X12	Y12	Z12	X13	Y13	Z13	X14	Y14	Z14	X15	Y15	Z15	X16	Y16	Z16	X17	Y17	Z17	X18	Y18	Z18	X19	Y19	Z19	X20	Y20	Z20	X21	Y21	Z21	X22	Y22	Z22	X23	Y23	Z23	X24	Y24	Z24	X25	Y25	Z25	X26	Y26	Z26	X27	Y27	Z27	X28	Y28	Z28	X29	Y29	Z29	X30	Y30	Z30	X31	Y31	Z31	X32	Y32	Z32	X33	Y33	Z33	X34	Y34	Z34	X35	Y35	Z35	X36	Y36	Z36	X37	Y37	Z37	X38	Y38	Z38	X39	Y39	Z39	X40	Y40	Z40	X41	Y41	Z41	X42	Y42	Z42	X43	Y43	Z43	

182	1.810	-1036.71985	-424.02930	1679.11035	-924.65479	-408.67715	1690.98315	-1024.24036	-520.97070	1601.12378	-904.77228	-507.19363	1611.25977	-977.37500	-519.57391	1438.50330	-963.12415	-560.91833	1145.98145	-981.61652	-376.69714	1366.85571	-987.01691	-339.01917	1209.41455	-893.41705	-573.91632	1246.12830	-1139.46008	-443.85178	1397.32935	-1217.31384	-485.82077	1212.41162	-1211.20435	-503.81229	1062.37207	-1235.09583	-470.00659	954.33209	-1232.49146	-391.15802	839.96466	-1236.65271	-450.06625	832.82855	-1255.68567	-408.56229	761.33618	-827.88953	-432.18475	1397.24524	-719.91882	-477.19302	1197.22510	-716.23090	-469.30402	1071.29761	-694.15704	-421.15833	958.09949	-727.14636	-326.25034	856.57666	-684.83691	-365.92419	849.49878	-690.37134	-315.68741	780.28607	-1078.73962	-395.77417	939.94269	-860.94128	-389.53888	932.33826	-1023.34833	-580.55627	949.29724	-878.26935	-576.02521	950.09387	-1153.89502	-349.11209	625.36157	-1140.75146	-324.02896	493.16608	-1154.17102	-380.24084	314.24338	-1112.74072	-407.98819	94.11488	-1054.58594	-446.65964	61.33352	-1134.71973	-269.52823	53.49855	-819.10980	-452.12708	597.83917	-851.52148	-448.20825	440.29794	-847.44647	-508.33121	273.55618	-904.82904	-544.55756	73.00220	-954.99237	-595.31372	35.06705	-907.61841	-404.89551	34.27674	-946.51227	-431.41751	1718.44055	-3101.90039	1973.14587	1023.45691	-3140.56592	2012.55408	1022.13959			 
183	1.820	-1037.17090	-418.65790	1678.85547	-924.98657	-403.26303	1690.67554	-1024.42908	-515.49963	1600.57202	-904.97894	-501.73337	1610.89429	-977.40460	-513.98395	1438.09839	-963.18158	-555.73877	1145.77441	-981.51965	-371.47476	1366.45166	-987.11847	-333.82364	1209.04260	-893.18390	-568.99017	1246.13403	-1139.68713	-438.75082	1396.92310	-1217.29175	-481.45169	1212.06311	-1211.18018	-500.22876	1062.17749	-1235.24536	-467.43234	953.94043	-1232.83789	-389.61121	838.71307	-1236.84937	-448.55573	832.24615	-1256.21960	-407.96027	760.47064	-828.20032	-426.38074	1396.93030	-719.78741	-471.12805	1197.04224	-715.97339	-463.30933	1071.16187	-694.28906	-414.50821	958.03558	-727.65491	-318.98856	857.10583	-685.33441	-358.61841	849.70581	-690.90631	-307.96793	780.94946	-1078.71204	-390.42355	939.77600	-860.74060	-384.67352	931.94458	-1023.56366	-575.41962	949.02502	-878.61450	-571.16620	949.65973	-1154.25757	-345.21518	624.62976	-1140.81250	-319.68173	492.52484	-1154.92041	-369.68314	312.07892	-1114.26001	-389.36908	90.80225	-1056.26477	-427.05356	56.80617	-1135.27319	-249.01582	54.89671	-819.36108	-449.03281	597.52570	-851.97986	-446.11142	439.88416	-847.45819	-507.00635	273.48666	-904.83447	-544.45526	73.11922	-955.03552	-594.98370	35.34990	-907.61053	-404.83246	34.22888	-946.89313	-426.00348	1718.09595	-3101.94214	1973.04797	1023.44788	-3140.84790	2012.45239	1021.91479			 
184	1.830	-1037.54956	-413.29529	1678.38086	-925.38080	-397.83148	1690.30579	-1024.79773	-510.24445	1600.40698	-905.30151	-496.32199	1610.54578	-977.53302	-508.74020	1437.74048	-963.48450	-550.45709	1145.40259	-981.79340	-366.22198	1366.10791	-987.21277	-328.61856	1208.65039	-893.22455	-563.33307	1245.76001	-1139.87866	-433.58917	1396.49146	-1217.42358	-477.01611	1211.66504	-1211.22205	-496.60910	1061.97302	-1235.40039	-464.72092	953.52429	-1233.38782	-387.94537	837.77014	-1237.15417	-446.98071	831.63745	-1256.64575	-407.00439	759.53656	-828.50916	-420.92130	1396.58765	-719.64557	-464.89041	1196.84326	-716.05743	-456.89609	1070.89429	-694.72345	-407.94034	957.84998	-728.21729	-311.76501	857.62170	-685.87537	-351.17258	849.82623	-691.71906	-300.18503	781.31085	-1078.70349	-385.02899	939.48651	-860.74420	-379.95132	931.46680	-1023.99255	-570.13287	948.64612	-879.02899	-566.24023	949.24298	-1154.67566	-341.31021	623.81274	-1140.96655	-315.31653	491.81091	-1155.85559	-359.43277	310.09872	-1115.59644	-371.30472	87.56130	-1057.93958	-407.90918	52.70885	-1136.16187	-229.45627	57.02751	-819.48236	-445.46347	597.24023	-851.83215	-443.49338	439.50583	-847.41058	-505.67068	273.47275	-904.90741	-544.39813	73.06460	-955.09229	-595.00629	35.70884	-907.55640	-404.78192	34.24524	-947.13867	-420.58517	1717.70532	-3102.05566	1973.08752	1023.79932	-3140.75830	2012.47388	1021.91980			 
185	1.840	-1037.93701	-407.93054	1677.85022	-925.91742	-392.31375	1689.83069	-1025.12354	-504.89465	1600.07678	-905.66162	-490.87921	1610.31006	-977.84381	-503.53549	1437.40588	-963.78839	-545.16742	1145.00720	-982.13300	-360.91531	1365.71887	-987.37036	-323.30499	1208.26160	-893.20001	-558.39203	1245.60498	-1140.22803	-428.43683	1396.02991	-1217.59949	-472.49527	1211.27173	-1211.28979	-492.84061	1061.75500	-1235.66187	-461.95837	953.07440	-1233.91125	-386.11380	836.67944	-1237.51563	-445.17770	831.06421	-1257.16785	-405.82721	758.64154	-828.78729	-415.52216	1396.25562	-719.68109	-458.87338	1196.53882	-716.15167	-450.73047	1070.58411	-694.93207	-401.10568	957.71655	-728.89111	-304.54910	858.03864	-686.64063	-343.86581	849.97144	-692.56946	-292.55920	781.71027	-1078.79651	-379.51712	939.15112	-860.62561	-374.86597	931.07104	-1024.42505	-564.77051	948.24426	-879.47314	-561.53210	949.16376	-1155.11890	-337.31537	622.88733	-1141.23083	-310.99365	491.07730	-1156.70459	-349.41058	308.30496	-1117.10596	-353.56033	85.32662	-1059.55859	-389.13913	49.23090	-1136.93884	-210.41916	59.26059	-819.65369	-442.28577	596.96851	-851.45386	-441.03275	439.19894	-847.43817	-504.24374	273.51343	-904.99731	-544.26654	73.17165	-955.10547	-595.42828	36.27765	-907.53857	-404.73282	34.20677	-947.62433	-415.12393	1717.33191	-3102.03052	1973.01868	1023.74628	-3140.80884	2012.53760	1022.04706			 
